<?xml version="1.0" encoding="utf-8"?>
<!-- Generator: Adobe Illustrator 14.0.0, SVG Export Plug-In . SVG Version: 6.00 Build 43363)  -->
<!DOCTYPE svg PUBLIC "-//W3C//DTD SVG 1.1//EN" "http://www.w3.org/Graphics/SVG/1.1/DTD/svg11.dtd">
<svg version="1.1" id="Layer_1" xmlns="http://www.w3.org/2000/svg" xmlns:xlink="http://www.w3.org/1999/xlink" x="0px" y="0px"
	 width="500px" height="500px" viewBox="0 0 500 500" enable-background="new 0 0 500 500" xml:space="preserve">
<path fill="#010101" d="M66.605,392.17c0,20.583,16.676,37.262,37.262,37.262h292.964c20.567,0,37.266-16.679,37.266-37.262v-27.002
	H66.605V392.17z"/>
<path fill="#010101" d="M250.348,64.635c-144.645,0-184.058,49.454-184.058,110.437h368.12
	C434.41,114.09,393.612,64.635,250.348,64.635z"/>
<rect x="66.291" y="256.363" fill="#010101" width="368.12" height="16.081"/>
<path fill="#010101" d="M437.022,319.729c0,14.175-8.119,25.663-18.144,25.663H81.821c-10.019,0-18.141-11.488-18.141-25.663l0,0
	c0-14.175,8.121-25.672,18.141-25.672h178.571l63.225,46.858l60.215-46.858h35.051C428.898,294.057,437.022,305.554,437.022,319.729
	L437.022,319.729z"/>
<path fill="#010101" d="M245.181,243.878c-1.061-0.021-2.116-0.199-3.136-0.539l-61.563-11.384l-69.929,11.326
	c-1.478,0.233-2.983,0.161-4.425-0.229l-49.343-13.289l-43.656,4.554c-5.65,1.364-11.457,3.909-12.826-1.748
	c-1.366-5.654,2-5.332,7.657-6.698l46.594-23.248c1.72-0.416,3.508-0.391,5.219,0.07l49.533,25.442l70.464-23.418
	c1.677-0.273,3.4-0.135,5.009,0.4l60.303,26.108l79.149-13.346c2.633-0.939,5.53-0.794,8.056,0.399l27.46,13.001l57.227-35.135
	c2.103-0.521,4.313-0.379,6.336,0.402l70.552,39.417c5.433,2.1,8.233,2.182,6.135,7.609c-2.104,5.426-8.085,2.102-13.521,0.006
	l-67.775-20.157l-57.27,14.167c-2.355,0.584-4.841,0.333-7.039-0.703l-26.91-12.746l-78.569,19.118
	C247.71,243.697,246.443,243.902,245.181,243.878z"/>
<path fill="#010101" d="M492.604,329.229c0,21.051-9.358,25.207-20.903,25.207c-11.547,0-20.903-11.533-20.903-32.588
	c0-21.057,0-21.981,0-38.12C462.345,283.731,492.604,308.177,492.604,329.229z"/>
<path fill="#010101" d="M23.352,280.276c0,14.822,6.589,17.745,14.714,17.745c8.127,0,14.716-8.119,14.716-22.94
	c0-14.819,0-15.475,0-26.835C44.656,248.249,23.352,265.455,23.352,280.276z"/>
</svg>
